<?xml version="1.0" encoding="utf-8"?>
<!-- Generator: Adobe Illustrator 16.0.3, SVG Export Plug-In . SVG Version: 6.00 Build 0)  -->
<!DOCTYPE svg PUBLIC "-//W3C//DTD SVG 1.1//EN" "http://www.w3.org/Graphics/SVG/1.1/DTD/svg11.dtd">
<svg version="1.1" id="Capa_1" xmlns="http://www.w3.org/2000/svg" xmlns:xlink="http://www.w3.org/1999/xlink" x="0px" y="0px"
	 width="822px" height="68px" viewBox="0 0 822 68" enable-background="new 0 0 822 68" xml:space="preserve">
<path fill-rule="evenodd" clip-rule="evenodd" fill="#FFFFFF" d="M743,1c2,0,4,0,6,0c12.175,2.658,21.577,8.883,27.127,20.449
	c1.401,2.921,2.709-0.015,3.655-0.857c3.69-3.29,7.974-3.544,12.118-1.809c4.354,1.824,6.091,5.822,4.98,10.328
	c-1.011,4.101,1.131,3.901,3.887,3.922c7.907,0.058,13.959,3.661,18.596,9.952c1.598,2.166,1.52,5.151,3.637,7.015
	c0,5.667-0.092,11.336,0.055,16.999c0.045,1.741-0.313,2.344-2.06,2.026C820.188,68.878,819.333,69,818.5,69
	c-271,0-542,0.002-813-0.043C3.566,68.956,0.192,70.462,1,66c0.22-0.246,0.56-0.456,0.644-0.742
	c4.257-14.571,18.94-21.9,34.853-16.899c2.82,0.886,3.702-0.129,4.74-2.565c3.062-7.179,8.858-9.59,16.333-6.904
	c1.979,0.712,3.088,0.874,4.599-1.026c12.087-15.213,27.722-22.218,47.238-19.915c17.034,2.009,30.11,10.137,38.203,25.408
	c1.932,3.646,3.047,4.451,6.731,1.904c9.992-6.907,21.921-3.391,27.128,7.577c0.692,1.457,1.325,2.942,2.004,4.456
	c12.437-8.891,19.976-11.592,31.889-11.247c6.798,0.197,13.012,2.55,18.973,5.649c1.849,0.962,3.55,1.696,3.581-1.543
	c0.059-6.308,3.769-9.669,9.359-11.399c5.696-1.764,10.232,0.464,13.618,4.825c1.953,2.515,3.027,2.126,4.963,0.176
	c15.974-16.094,34.768-20.477,56.237-13.213c2.421,0.818,3.577,1.213,4.062-2.296c2.113-15.332,17.417-18.459,27.274-13.128
	c2.854,1.543,4.935,1.487,7.843,0.396c16.967-6.372,32.926-4.567,47.658,6.394c6.242,4.646,10.313,10.991,14.029,17.8
	c7.272-6.988,15.294-9.636,24.483-5.83c8.901,3.686,10.745,11.142,9.414,19.833c-0.437,2.852,1.478,2.963,3.275,3.206
	c5.741,0.776,10.942,2.976,15.579,6.313c2.812,2.023,4.959,1.759,7.528-0.322c8.835-7.158,18.964-11.666,30.067-13.915
	c3.197-0.647,4.602-2.257,5.391-5.419c4.246-17.009,22.431-25.396,38.083-17.535c2.469,1.24,3.598,1.359,5.755-0.709
	c5.294-5.076,14.575-2.983,16.845,3.902c1.133,3.438,2.84,3.85,5.767,3.768c8.505-0.239,15.661,3.137,21.321,9.221
	c2.354,2.53,3.486,2.556,5.724,0.141c14.417-15.563,40.26-17.582,57.029-3.641c2.691,2.237,3.54,1.51,4.617-1.47
	c4.369-12.083,18.736-16.282,28.547-8.056c3.54,2.968,4.181,1.552,5.787-1.47c5.037-9.472,12.042-16.993,21.837-21.908
	C734.217,3.704,738.864,3.105,743,1z"/>
</svg>
