<?xml version="1.0" encoding="utf-8"?>
<!-- Generator: Adobe Illustrator 16.0.3, SVG Export Plug-In . SVG Version: 6.00 Build 0)  -->
<!DOCTYPE svg PUBLIC "-//W3C//DTD SVG 1.1//EN" "http://www.w3.org/Graphics/SVG/1.1/DTD/svg11.dtd">
<svg version="1.1" id="Capa_1" xmlns="http://www.w3.org/2000/svg" xmlns:xlink="http://www.w3.org/1999/xlink" x="0px" y="0px"
	 width="841.89px" height="595.28px" viewBox="0 0 841.89 595.28" enable-background="new 0 0 841.89 595.28" xml:space="preserve">
<g>
	<path fill="#C3D5D9" d="M389.623,282.733c10.515-0.286,13.829-8.143,17.162-15.433c3.75-8.197,11.156-16.947,16.306-15.232
		c-1.95,8.303-1.416,24.111,4.387,30.981c-4.069,0-5.604,1.135-5.937,3.002C421.208,287.918,389.623,282.733,389.623,282.733z"/>
	<path fill="#C3D5D9" d="M358.961,321.809c-4.557,4.556-7.637,13.67-4.044,23.424c4.813-7.894,14.609-21.306,20.27-22.976
		C380.845,320.588,358.961,321.809,358.961,321.809z"/>
	<g>
		<path fill="#CFDDE0" d="M304.127,307.129c0-6.78,48.818-24.682,96.011-24.682s80.01,24.682,93.57,24.682
			c10.155,0,34.717-29.021,42.854-37.157c1.632-1.631,2.273-1.224,1.575,1.449c-0.447,1.717-0.896,9.333-0.896,9.333
			s-2.427-1.68-3.136-0.97c-0.71,0.709,3.285,5.227-3.659,12.171c-6.945,6.945-14.859,17.697-14.859,23.521
			s12.32,18.069,12.32,20.386c0,2.314-8.438,1.194-18.369-5.975c-9.932-7.168-11.481-12.32-17.847-13.664
			c-13.444-2.84-45.003,9.458-79.377,9.458c-27.854,0-76.155-1.48-79.118-6.964C315.417,317.829,304.127,309.614,304.127,307.129z"
			/>
		<path opacity="0.1" d="M367.298,314.857c1.088-2.748,1.621-5.607,1.688-8.487c0.079-2.884-0.376-5.749-1.261-8.57
			c1.537,2.542,2.216,5.597,2.149,8.591C369.787,309.376,369.019,312.422,367.298,314.857z"/>
		<path opacity="0.1" d="M370.172,314.857c1.088-2.748,1.621-5.607,1.688-8.487c0.079-2.884-0.376-5.749-1.262-8.57
			c1.538,2.542,2.217,5.597,2.149,8.591C372.661,309.376,371.893,312.422,370.172,314.857z"/>
		<path opacity="0.1" d="M373.047,314.857c1.086-2.748,1.619-5.607,1.688-8.487c0.079-2.884-0.377-5.749-1.262-8.57
			c1.539,2.542,2.217,5.597,2.15,8.591C375.535,309.376,374.768,312.422,373.047,314.857z"/>
		<path opacity="0.1" d="M375.92,314.857c1.087-2.748,1.62-5.607,1.688-8.487c0.079-2.884-0.376-5.749-1.262-8.57
			c1.538,2.542,2.217,5.597,2.149,8.591C378.408,309.376,377.641,312.422,375.92,314.857z"/>
		<circle fill="#333333" cx="335.335" cy="308.647" r="2.251"/>
		<circle fill="#FFFFFF" cx="335.792" cy="308.189" r="0.644"/>
		<path fill="#F0F4F6" d="M405.652,314.627c-52.659,3.658-86.326-1.573-101.337-8.264c-0.12,0.269-0.188,0.524-0.188,0.766
			c0,2.485,11.29,10.7,29.069,11.589c2.963,5.483,51.265,6.964,79.118,6.964c34.374,0,65.933-12.298,79.377-9.458
			c1.431,0.301,2.613,0.806,3.707,1.474C499.712,309.882,466.102,310.431,405.652,314.627z"/>
		<path opacity="0.05" d="M399.948,321.378c-33.2,0-52.531-1.087-63.708-0.81c11.526,3.975,51.656,5.113,76.074,5.113
			c29.473,0,56.865-9.033,72.556-9.821C478.824,310.397,448.624,321.378,399.948,321.378z"/>
		<path opacity="0.05" d="M515.587,315.477c0-4.915,5.64-13.335,11.573-20.02c-9.084,5.235-17.704,13.854-16.761,19.4
			c0.922,5.427,6.879,12.262,14.361,16.048C521.11,326.156,515.587,319.378,515.587,315.477z"/>
	</g>
	<path fill="#C3D5D9" d="M379.868,316.022c0,4.548,17.558,20.753,49.338,23.096c-11.969-6.914-22.56-17.286-20.655-22.326
		C410.657,311.214,384.697,311.192,379.868,316.022z"/>
</g>
</svg>
