<?xml version="1.0" encoding="UTF-8" standalone="no"?>
<svg width="237px" height="237px" viewBox="0 0 237 237" version="1.1" xmlns="http://www.w3.org/2000/svg" xmlns:xlink="http://www.w3.org/1999/xlink" xmlns:sketch="http://www.bohemiancoding.com/sketch/ns">
    <!-- Generator: Sketch 3.0.4 (8053) - http://www.bohemiancoding.com/sketch -->
    <title>marin_sketch 2</title>
    <desc>Created with Sketch.</desc>
    <defs>
        <circle id="path-1" cx="117.5" cy="117.5" r="117.5"></circle>
        <linearGradient x1="49.9983697%" y1="-1.1471294%" x2="49.9983697%" y2="91.4416729%" id="linearGradient-3">
            <stop stop-color="#B17F4A" offset="0%"></stop>
            <stop stop-color="#77563F" offset="100%"></stop>
        </linearGradient>
    </defs>
    <g id="Page-1" stroke="none" stroke-width="1" fill="none" fill-rule="evenodd" sketch:type="MSPage">
        <g id="covik" sketch:type="MSLayerGroup" transform="translate(1.000000, 1.000000)">
            <mask id="mask-2" sketch:name="round_mask" fill="white">
                <use xlink:href="#path-1"></use>
            </mask>
            <use id="round_mask" fill="#343534" sketch:type="MSShapeGroup" xlink:href="#path-1"></use>
            <rect id="Rectangle" fill="#EAC4B0" sketch:type="MSShapeGroup" mask="url(#mask-2)" x="93.5540009" y="144.001999" width="51.8590012" height="47.0760002"></rect>
            <rect id="Rectangle" fill="#7B6A58" sketch:type="MSShapeGroup" mask="url(#mask-2)" x="57.5420074" y="223.002014" width="123" height="153.576004"></rect>
            <path d="M219.866,233.34 C219.828,230.856 219.723,228.37 219.527,225.882 C219.134,220.907 218.33,215.924 217.119,210.933 C216.528,208.438 215.799,205.94 215.053,203.442 C214.647,202.192 214.271,200.943 213.841,199.693 C213.649,199.379 213.333,199.063 212.677,198.74 L212.212,198.498 L211.603,198.253 L211.298,198.131 C211.188,198.09 211.029,198.048 210.898,198.007 L210.069,197.758 C209.089,197.429 207.568,197.09 205.902,196.748 L202.859,196.224 L201.3,195.962 L199.285,195.691 L198.482,195.675 L196.458,195.869 L194.891,196.072 L191.83,196.48 C190.152,196.759 188.62,197.04 187.627,197.332 L186.79,197.549 C186.657,197.586 186.497,197.621 186.385,197.658 L186.076,197.769 L185.458,197.99 L184.984,198.214 C184.317,198.512 183.989,198.816 183.786,199.123 C183.309,200.356 182.885,201.59 182.432,202.823 C181.591,205.291 180.768,207.76 180.082,210.23 C178.682,215.171 177.689,220.12 177.107,225.077 C176.817,227.555 176.617,230.035 176.485,232.516 C176.344,234.997 176.279,237.48 176.225,239.963 L176.037,254.862 C175.999,257.345 175.977,259.828 175.984,262.313 C176.002,264.797 176.033,267.281 176.108,269.767 C176.18,272.252 176.273,274.738 176.426,277.225 L176.643,280.955 L176.933,284.686 C177.132,287.173 177.382,289.662 177.664,292.151 C177.943,294.64 178.278,297.13 178.643,299.621 C179.031,302.112 179.439,304.604 179.938,307.097 C180.348,309.186 180.802,311.276 181.352,313.368 C180.714,315.26 180.097,317.159 179.512,319.066 C179.065,320.47 178.662,321.886 178.248,323.3 C177.838,324.715 177.412,326.125 177.035,327.549 L175.871,331.812 C175.471,333.23 175.135,334.666 174.764,336.092 C174.028,338.946 173.312,341.806 172.656,344.683 L171.644,348.991 C171.301,350.425 171.009,351.875 170.689,353.316 C170.41,354.769 170.094,356.211 169.855,357.675 C169.587,359.132 169.37,360.602 169.152,362.073 C168.749,365.024 168.426,367.999 168.16,370.99 C168.027,372.486 167.863,373.972 167.756,375.476 C167.712,376.997 167.882,378.581 168.716,380.361 L184.795,385.068 C186.457,384.02 187.454,382.777 188.238,381.472 C188.959,380.148 189.622,378.808 190.317,377.477 C191.706,374.814 193.038,372.134 194.29,369.432 C194.899,368.076 195.51,366.72 196.07,365.349 C196.658,363.987 197.17,362.602 197.718,361.228 C198.226,359.841 198.762,358.464 199.246,357.071 L200.717,352.898 C201.716,350.121 202.655,347.327 203.574,344.527 C204.031,343.126 204.522,341.735 204.949,340.326 L206.268,336.108 C206.719,334.705 207.12,333.288 207.538,331.876 C207.952,330.463 208.376,329.052 208.757,327.629 C209.549,324.792 210.3,321.942 210.958,319.066 L211.558,315.151 C212.359,312.683 212.996,310.211 213.58,307.738 C214.173,305.265 214.676,302.791 215.158,300.317 C215.617,297.842 216.047,295.366 216.421,292.889 C216.797,290.412 217.141,287.935 217.435,285.457 L217.867,281.739 L218.225,278.02 C218.474,275.541 218.661,273.061 218.827,270.58 C218.995,268.099 219.121,265.618 219.233,263.136 C219.335,260.654 219.406,258.172 219.463,255.689 L219.841,240.793 C219.883,238.308 219.913,235.825 219.866,233.34 L219.866,233.34 Z" id="Shape" fill="#F7D2BA" sketch:type="MSShapeGroup" mask="url(#mask-2)"></path>
            <path d="M41.663,193.299 L43.683,193.673 L45.238,194.016 L48.275,194.697 C49.931,195.127 51.44,195.546 52.4,195.929 L53.214,196.222 C53.343,196.27 53.5,196.321 53.607,196.368 L53.903,196.507 L54.495,196.786 L54.94,197.055 C55.56,197.415 55.872,197.755 56.014,198.083 C56.31,199.379 56.553,200.671 56.825,201.965 C57.104,203.259 57.329,204.55 57.561,205.842 C57.79,207.134 58.037,208.426 58.232,209.715 C59.06,214.874 59.641,220.017 59.934,225.141 C60.086,227.703 60.157,230.26 60.17,232.813 C60.19,235.367 60.15,237.916 60.055,240.462 C59.974,243.008 59.841,245.552 59.683,248.093 C59.538,250.635 59.34,253.175 59.163,255.715 L58.068,270.955 C57.692,276.034 57.116,281.1 56.319,286.151 C55.922,288.676 55.471,291.199 54.949,293.716 L54.119,297.489 L53.191,301.255 C52.507,303.762 51.809,306.267 50.959,308.763 C50.113,311.259 49.215,313.751 48.051,316.226 L45.459,306.773 C47.63,309.622 49.72,312.525 51.776,315.453 C52.817,316.908 53.82,318.389 54.832,319.863 C55.841,321.34 56.864,322.807 57.845,324.303 L60.816,328.771 C61.816,330.254 62.762,331.774 63.738,333.273 C65.684,336.275 67.613,339.29 69.49,342.34 L72.33,346.898 C73.282,348.414 74.189,349.96 75.121,351.49 C76.017,353.044 76.946,354.576 77.809,356.153 C78.696,357.713 79.539,359.303 80.384,360.893 C82.044,364.092 83.635,367.338 85.178,370.618 C85.949,372.259 86.747,373.88 87.496,375.535 C88.19,377.228 88.702,379.047 88.642,381.257 L74.83,390.741 C72.746,390.003 71.232,388.873 69.902,387.617 C68.626,386.324 67.399,384.996 66.145,383.687 C63.638,381.07 61.18,378.418 58.791,375.72 C57.611,374.362 56.429,373.003 55.291,371.616 C54.129,370.244 53.032,368.828 51.904,367.433 C50.811,366.013 49.693,364.612 48.621,363.179 L45.387,358.891 C43.215,356.044 41.094,353.162 38.991,350.266 C37.942,348.817 36.863,347.389 35.838,345.922 L32.734,341.545 C31.69,340.092 30.688,338.61 29.672,337.139 C28.659,335.665 27.638,334.197 26.654,332.703 C24.66,329.733 22.701,326.74 20.822,323.691 L18.23,314.238 C17.404,311.631 16.845,309.042 16.337,306.456 C15.825,303.87 15.465,301.294 15.12,298.719 L14.7,294.863 L14.378,291.013 C14.195,288.449 14.083,285.889 14.024,283.333 C13.904,278.221 14.006,273.123 14.306,268.039 L15.242,252.789 C15.404,250.248 15.544,247.705 15.738,245.166 C15.918,242.626 16.124,240.087 16.381,237.553 C16.625,235.017 16.924,232.485 17.282,229.956 C17.633,227.427 18.043,224.903 18.533,222.383 C19.502,217.343 20.76,212.323 22.265,207.319 C22.629,206.067 23.045,204.819 23.444,203.569 C23.845,202.32 24.239,201.07 24.688,199.824 C25.129,198.577 25.541,197.329 26.006,196.084 C26.19,195.777 26.545,195.482 27.207,195.207 L27.681,195 L28.305,194.802 L28.617,194.703 C28.73,194.671 28.891,194.641 29.026,194.611 L29.872,194.428 C30.874,194.176 32.425,193.96 34.124,193.754 L37.224,193.482 L38.811,193.349 L40.862,193.246 L41.663,193.299 L41.663,193.299 Z" id="Shape" fill="#F7D2BA" sketch:type="MSShapeGroup" mask="url(#mask-2)"></path>
            <path d="M87.494,375.535 C86.745,373.88 85.947,372.259 85.176,370.618 C83.634,367.339 82.042,364.093 80.382,360.893 C79.537,359.303 78.694,357.713 77.807,356.153 C76.944,354.576 76.016,353.044 75.119,351.49 C74.187,349.96 73.28,348.414 72.328,346.898 L69.488,342.34 C67.611,339.29 65.682,336.276 63.736,333.273 C62.76,331.773 61.815,330.253 60.814,328.771 L57.843,324.303 C56.862,322.807 55.84,321.34 54.83,319.863 C53.818,318.389 52.814,316.908 51.774,315.453 C51.069,314.45 50.353,313.454 49.639,312.458 C50.108,311.228 50.539,309.996 50.957,308.763 C51.807,306.267 52.505,303.762 53.189,301.255 L54.117,297.489 L54.947,293.716 C55.469,291.199 55.919,288.676 56.317,286.151 C57.113,281.1 57.689,276.034 58.066,270.955 L59.161,255.715 C59.338,253.175 59.536,250.636 59.681,248.093 C59.839,245.551 59.972,243.008 60.053,240.462 C60.148,237.916 60.187,235.367 60.168,232.813 C60.155,230.26 60.084,227.703 59.932,225.141 C59.64,220.017 59.058,214.874 58.23,209.715 C58.035,208.426 57.789,207.133 57.559,205.842 C57.328,204.55 57.102,203.259 56.823,201.965 C56.551,200.671 56.308,199.379 56.012,198.083 C55.87,197.754 55.558,197.415 54.938,197.055 L54.493,196.786 L53.901,196.507 L53.605,196.368 C53.498,196.321 53.341,196.27 53.212,196.222 L52.398,195.929 C51.438,195.546 49.929,195.127 48.273,194.697 L45.236,194.016 L43.681,193.673 L41.661,193.299 L40.86,193.245 L38.809,193.348 L37.222,193.481 L34.122,193.753 C32.423,193.959 30.872,194.175 29.87,194.427 L29.024,194.61 C28.889,194.641 28.728,194.67 28.615,194.702 L28.303,194.801 L27.681,195 L27.204,195.208 C26.542,195.483 26.187,195.778 26.003,196.085 C25.538,197.33 25.126,198.579 24.685,199.825 C24.237,201.071 23.842,202.321 23.441,203.57 C23.042,204.82 22.626,206.068 22.262,207.32 C20.757,212.324 19.499,217.344 18.53,222.384 C18.039,224.904 17.63,227.428 17.279,229.957 C16.921,232.485 16.622,235.018 16.378,237.554 C16.121,240.089 15.915,242.627 15.735,245.167 C15.542,247.706 15.401,250.249 15.239,252.79 L14.303,268.04 C14.003,273.124 13.901,278.222 14.021,283.334 C14.081,285.89 14.192,288.449 14.375,291.014 L14.697,294.864 L15.117,298.72 C15.463,301.295 15.822,303.871 16.334,306.457 C16.841,309.043 17.401,311.632 18.227,314.239 L20.819,323.692 C22.698,326.741 24.657,329.734 26.651,332.704 C27.635,334.198 28.656,335.666 29.669,337.14 C30.685,338.612 31.687,340.094 32.731,341.546 L35.835,345.923 C36.859,347.389 37.939,348.818 38.988,350.267 C41.091,353.162 43.212,356.044 45.384,358.892 L48.618,363.18 C49.69,364.613 50.808,366.014 51.901,367.434 C53.029,368.829 54.126,370.245 55.288,371.617 C56.426,373.005 57.607,374.363 58.788,375.721 C61.178,378.419 63.636,381.071 66.142,383.688 C67.396,384.997 68.622,386.325 69.899,387.618 C71.229,388.874 72.743,390.004 74.827,390.742 L88.639,381.258 C88.7,379.047 88.188,377.229 87.494,375.535 L87.494,375.535 Z" id="Shape" fill="#F7D2BA" sketch:type="MSShapeGroup" mask="url(#mask-2)"></path>
            <path d="M57.542,225.73 C57.542,225.73 55.599,253.818 56.282,271.15 C56.966,288.481 57.542,314.865 57.542,314.865 L116.173,301.489 L180.214,314.865 C180.214,314.865 180.087,282.146 180.543,265.271 C180.999,248.395 181.422,220.449 181.422,220.449 L57.542,225.73 L57.542,225.73 Z" id="Shape" fill="#7B6A58" sketch:type="MSShapeGroup" mask="url(#mask-2)"></path>
            <path d="M74.9,387.617 C73.624,386.324 72.397,384.996 71.143,383.687 C68.636,381.07 66.178,378.418 63.789,375.72 C62.609,374.362 61.427,373.003 60.289,371.616 C59.127,370.244 58.03,368.828 56.902,367.433 C55.809,366.013 54.691,364.612 53.619,363.179 L50.385,358.891 C48.213,356.044 46.092,353.162 43.989,350.266 C42.94,348.817 41.861,347.389 40.836,345.922 L37.732,341.545 C36.688,340.092 35.686,338.61 34.67,337.139 C33.657,335.665 32.636,334.197 31.652,332.703 C29.658,329.733 27.699,326.74 25.82,323.691 L23.228,314.238 C22.402,311.631 21.843,309.042 21.335,306.456 C20.823,303.87 20.463,301.294 20.118,298.719 L19.698,294.863 L19.376,291.013 C19.193,288.449 19.081,285.889 19.022,283.333 C18.902,278.221 19.004,273.123 19.304,268.039 L20.24,252.789 C20.402,250.248 20.542,247.705 20.736,245.166 C20.916,242.626 21.122,240.087 21.379,237.553 C21.623,235.017 21.922,232.485 22.28,229.956 C22.631,227.427 23.041,224.903 23.531,222.383 C24.5,217.343 25.758,212.323 27.263,207.319 C27.627,206.067 28.043,204.819 28.442,203.569 C28.843,202.32 29.237,201.07 29.686,199.824 C30.127,198.577 30.539,197.329 31.004,196.084 C31.188,195.777 31.543,195.482 32.205,195.207 L32.682,194.999 L33.306,194.801 L33.618,194.702 C33.731,194.67 33.892,194.64 34.027,194.61 L34.873,194.427 C35.875,194.175 37.426,193.959 39.125,193.753 L42.225,193.481 L42.518,193.457 L41.664,193.299 L40.863,193.245 L38.812,193.348 L37.225,193.481 L34.125,193.753 C32.426,193.959 30.875,194.175 29.873,194.427 L29.027,194.61 C28.892,194.641 28.731,194.67 28.618,194.702 L28.306,194.801 L27.681,195 L27.204,195.208 C26.542,195.483 26.187,195.778 26.003,196.085 C25.538,197.33 25.126,198.579 24.685,199.825 C24.237,201.071 23.842,202.321 23.441,203.57 C23.042,204.82 22.626,206.068 22.262,207.32 C20.757,212.324 19.499,217.344 18.53,222.384 C18.039,224.904 17.63,227.428 17.279,229.957 C16.921,232.485 16.622,235.018 16.378,237.554 C16.121,240.089 15.915,242.627 15.735,245.167 C15.542,247.706 15.401,250.249 15.239,252.79 L14.303,268.04 C14.003,273.124 13.901,278.222 14.021,283.334 C14.081,285.89 14.192,288.449 14.375,291.014 L14.697,294.864 L15.117,298.72 C15.463,301.295 15.822,303.871 16.334,306.457 C16.841,309.043 17.401,311.632 18.227,314.239 L20.819,323.692 C22.698,326.741 24.657,329.734 26.651,332.704 C27.635,334.198 28.656,335.666 29.669,337.14 C30.685,338.612 31.687,340.094 32.731,341.546 L35.835,345.923 C36.859,347.389 37.939,348.818 38.988,350.267 C41.091,353.162 43.212,356.044 45.384,358.892 L48.618,363.18 C49.69,364.613 50.808,366.014 51.901,367.434 C53.029,368.829 54.126,370.245 55.288,371.617 C56.426,373.005 57.607,374.363 58.788,375.721 C61.178,378.419 63.636,381.071 66.142,383.688 C67.396,384.997 68.622,386.325 69.899,387.618 C71.229,388.874 72.743,390.004 74.827,390.742 L76.954,389.281 C76.205,388.771 75.529,388.211 74.9,387.617 L74.9,387.617 Z" id="Shape" fill="#FCD7C2" sketch:type="MSShapeGroup" mask="url(#mask-2)"></path>
            <path d="M185.993,169.002 C168.788,166.153 144.753,160.002 144.753,160.002 L119.483,162.002 L117.362,162.002 L117.362,250.398 L121.335,250.398 L219.542,250.398 C219.542,250.398 222.079,219.871 216.147,198.002 C211.019,179.093 203.2,171.851 185.993,169.002 L185.993,169.002 Z" id="Shape" fill="#7B6A58" sketch:type="MSShapeGroup" mask="url(#mask-2)"></path>
            <path d="M49.082,169.002 C66.287,166.153 94.322,160.002 94.322,160.002 L119.592,162.002 L121.713,162.002 L121.713,250.398 L117.74,250.398 L15.288,248.616 C15.288,248.616 15.846,227.605 19.213,206.2 C22.258,186.846 31.875,171.851 49.082,169.002 L49.082,169.002 Z" id="Shape" fill="#7B6A58" sketch:type="MSShapeGroup" mask="url(#mask-2)"></path>
            <path d="M167.95,373.226 C168.02,372.492 168.093,371.759 168.158,371.024 C167.38,354.484 165.198,314.273 163.338,308.158 C155.927,283.795 80.43,310.6 72.091,303.547 C58.444,292.004 58.941,229.663 58.941,229.663 C58.202,240.647 54.917,247.401 56.711,283.474 C57.19,298.777 57.542,314.866 57.542,314.866 L57.542,322.913 L146.941,308.208 C148.424,307.964 149.843,308.648 150.615,309.833 C151.985,310.184 153.088,311.31 153.333,312.796 L156.797,376.578 L164.363,377.582 C167.633,375.389 167.897,373.202 167.897,373.202 L167.95,373.226 L167.95,373.226 Z" id="Shape" opacity="0.4" fill="#665A4E" sketch:type="MSShapeGroup" mask="url(#mask-2)"></path>
            <path d="M57.542,177.676 C104.324,175.275 104.322,170.002 104.322,170.002 L121.713,171.378 L121.713,162.002 L119.592,162.002 L94.322,160.002 C94.322,160.002 66.287,166.153 49.082,169.002 C31.875,171.851 22.258,186.846 19.213,206.2 C15.846,227.605 15.288,248.616 15.288,248.616 L20.014,249.737 C20.521,241.608 9.943,180.12 57.542,177.676 L57.542,177.676 Z" id="Shape" fill="#8E7966" sketch:type="MSShapeGroup" mask="url(#mask-2)"></path>
            <path d="M145.51,160.235 C149.572,172.302 133.858,177.676 119.484,177.676 C105.111,177.676 87.588,173.248 93.459,160.235 C97.42,151.455 105.111,142.794 119.484,142.794 C133.857,142.793 142.437,151.106 145.51,160.235 L145.51,160.235 Z" id="Shape" fill="#EAC4B0" sketch:type="MSShapeGroup" mask="url(#mask-2)"></path>
            <path d="M149.017,172.609 C151.364,169.343 152.23,165.578 151.631,161.587 C147.434,160.635 144.754,160.002 144.754,160.002 L119.539,161.998 L94.324,160.002 C94.324,160.002 91.471,160.628 87.036,161.571 C85.906,166.446 87.276,170.139 88.825,172.537 C95.127,182.292 112.366,183.346 119.485,183.346 C124.602,183.346 141.859,182.571 149.017,172.609 L149.017,172.609 Z" id="Shape" fill="#5E2E20" sketch:type="MSShapeGroup" mask="url(#mask-2)"></path>
            <path d="M145.51,160.235 C149.572,172.302 133.858,177.676 119.484,177.676 C105.111,177.676 87.588,173.248 93.459,160.235 C97.42,151.455 105.111,142.794 119.484,142.794 C133.857,142.793 142.437,151.106 145.51,160.235 L145.51,160.235 Z" id="Shape" fill="#EAC4B0" sketch:type="MSShapeGroup" mask="url(#mask-2)"></path>
            <path d="M87.588,38.603 L103.793,21.413 L109.492,24.861 L115.116,14.365 L121.948,23.651 L125.568,20.729 L146.895,37.478 L87.588,38.603 Z" id="Shape" fill="#77563F" sketch:type="MSShapeGroup" mask="url(#mask-2)"></path>
            <path d="M75.277,95.946 C75.277,95.946 70.083,61.04 80.665,46.386 C91.282,31.683 100.174,30.674 119.483,29.782 C138.537,28.902 158.301,40.234 162.135,58.143 C164.84,70.777 162.135,95.146 162.135,95.146 L154.013,107.112 L84.966,112.695 L74.882,97.467" id="Shape" fill="#77563F" sketch:type="MSShapeGroup" mask="url(#mask-2)"></path>
            <path d="M127.036,27.701 C127.036,27.701 126.634,33.699 127.47,39.159 C123.276,31.921 115.948,24.862 115.948,24.862 C115.948,24.862 108.152,33.014 105.12,40.78 C105.076,34.759 103.386,27.701 103.386,27.701 C103.386,27.701 74.325,52.756 100.715,52.6 C106.448,53.529 108.241,54.579 118.082,54.588 C127.86,54.597 134.304,53.425 138.796,50.928 C152.833,42.902 127.036,27.701 127.036,27.701 L127.036,27.701 Z" id="Shape" fill="url(#linearGradient-3)" sketch:type="MSShapeGroup" mask="url(#mask-2)"></path>
            <path d="M132.015,34.502 C132.015,34.502 136.805,48.45 127.47,49.964 C123.276,42.726 115.948,35.667 115.948,35.667 C115.948,35.667 108.152,43.819 105.12,51.585 C100.715,46.856 100.715,35.667 100.715,35.667 C100.715,35.667 74.325,63.562 100.715,63.406 C106.448,64.335 108.241,65.385 118.082,65.394 C127.86,65.403 134.304,64.231 138.796,61.734 C152.833,53.708 132.015,34.502 132.015,34.502 L132.015,34.502 Z" id="Shape" fill="#77563F" sketch:type="MSShapeGroup" mask="url(#mask-2)"></path>
            <path d="M93.554,154.287 C99.988,159.753 110.067,169.953 119.712,169.778 C129.304,169.952 139.109,159.815 145.413,154.377 L145.413,144.002 L93.554,144.002 L93.554,154.287 L93.554,154.287 Z" id="Shape" fill="#E2BEAA" sketch:type="MSShapeGroup" mask="url(#mask-2)"></path>
            <path d="M158.076,77.165 C158.076,70.059 157.568,63.968 148.939,57.369 C140.31,50.77 127.062,58.076 119.991,57.369 C119.823,57.352 119.652,57.332 119.483,57.314 C119.314,57.332 119.143,57.352 118.975,57.369 C111.904,58.076 97.656,50.77 89.027,57.369 C80.398,63.968 79.89,70.058 79.89,77.165 C79.89,84.272 81.382,105.082 81.89,110.666 C82.398,116.25 85.952,137.568 89.504,143.659 C92.973,149.606 105.796,161.483 119.711,161.231 C133.626,161.483 145.992,149.606 149.461,143.659 C153.014,137.568 157.567,116.249 158.075,110.666 C158.583,105.083 158.076,84.271 158.076,77.165 L158.076,77.165 Z" id="Shape" fill="#FCD7C2" sketch:type="MSShapeGroup" mask="url(#mask-2)"></path>
            <path d="M158.076,77.165 C158.076,70.059 157.568,63.968 148.939,57.369 C140.31,50.77 127.062,58.076 119.991,57.369 C119.823,57.352 119.652,57.332 119.483,57.314 C119.314,57.332 119.143,57.352 118.975,57.369 C111.904,58.076 97.656,50.77 89.027,57.369 C80.398,63.968 87.027,84.829 87.027,91.935 C87.027,99.041 84.472,107.111 84.966,112.696 C86.015,124.554 88.607,126.407 92.159,132.498 C95.628,138.445 93.553,162.001 119.711,161.23 C133.626,161.482 145.992,149.605 149.461,143.658 C153.014,137.567 156.567,116.248 157.075,110.665 C157.583,105.082 158.076,84.271 158.076,77.165 L158.076,77.165 Z" id="Shape" fill="#F7D2BA" sketch:type="MSShapeGroup" mask="url(#mask-2)"></path>
            <path d="M125.788,146.491 C125.788,147.415 123.404,148.164 119.23,148.164 C115.056,148.164 112.672,147.415 112.672,146.491 C112.672,145.568 115.056,146.056 119.23,146.056 C123.404,146.056 125.788,145.567 125.788,146.491 L125.788,146.491 Z" id="Shape" opacity="0.5" fill="#D8B9A7" sketch:type="MSShapeGroup" mask="url(#mask-2)"></path>
            <path d="M119.238,137.367 L119.208,137.361 L119.179,137.367 L105.991,134.386 C105.991,134.386 109.308,139.333 111.869,141.008 C114.622,142.809 116.567,142.989 119.209,142.997 C121.852,142.99 123.797,142.809 126.551,141.008 C129.111,139.333 132.428,134.386 132.428,134.386 L119.238,137.367 L119.238,137.367 Z" id="Shape" opacity="0.2" fill="#D8B9A7" sketch:type="MSShapeGroup" mask="url(#mask-2)"></path>
            <path d="M119.287,134.308 L119.253,134.301 L119.231,134.305 L119.209,134.301 L119.175,134.308 L102.223,130.766 C102.223,130.766 107.99,136.636 110.887,138.634 C112.674,139.866 116.214,140.988 119.209,140.997 L119.231,140.997 L119.253,140.997 C122.248,140.988 125.789,139.866 127.575,138.634 C130.471,136.636 136.239,130.766 136.239,130.766 L119.287,134.308 L119.287,134.308 Z" id="Shape" fill="#D3918C" sketch:type="MSShapeGroup" mask="url(#mask-2)"></path>
            <path d="M119.848,131.822 C119.729,131.822 119.606,131.822 119.484,131.821 C119.362,131.821 119.239,131.822 119.12,131.822 C112.573,131.822 102.544,130.766 102.544,130.766 C102.544,130.766 108.002,136.423 119.484,136.423 C130.966,136.423 135.883,130.766 135.883,130.766 C135.883,130.766 126.395,131.822 119.848,131.822 L119.848,131.822 Z" id="Shape" fill="#771B10" sketch:type="MSShapeGroup" mask="url(#mask-2)"></path>
            <path d="M83.855,103.369 C83.855,103.369 79.214,93.021 74.882,96.4 C70.55,99.779 71.822,111.394 74.882,117.095 C77.942,122.796 79.843,126.809 83.855,126.176 C87.867,125.543 85.6,123.642 85.6,123.642 L83.855,103.369 L83.855,103.369 Z" id="Shape" fill="#FCD7C2" sketch:type="MSShapeGroup" mask="url(#mask-2)"></path>
            <path d="M154.477,101.682 C154.477,101.682 159.118,91.334 163.45,94.713 C167.782,98.092 166.51,109.707 163.45,115.408 C160.39,121.109 158.489,125.122 154.477,124.489 C150.465,123.856 151.732,121.955 151.732,121.955 L154.477,101.682 L154.477,101.682 Z" id="Shape" fill="#F7D2BA" sketch:type="MSShapeGroup" mask="url(#mask-2)"></path>
            <path d="M111.571,89.39 C112.792,88.627 109.039,84.366 102.819,85.012 C93.925,85.936 89.035,89.928 89.035,89.928 C89.035,89.928 95.693,87.474 103.173,87.474 C107.824,87.474 110.351,90.152 111.571,89.39 L111.571,89.39 Z" id="Shape" opacity="0.6" fill="#77563F" sketch:type="MSShapeGroup" mask="url(#mask-2)"></path>
            <path d="M127.036,89.39 C126.417,88.627 129.568,84.366 135.788,85.012 C144.682,85.936 149.572,89.928 149.572,89.928 C149.572,89.928 142.914,87.474 135.434,87.474 C130.783,87.474 127.655,90.152 127.036,89.39 L127.036,89.39 Z" id="Shape" opacity="0.6" fill="#77563F" sketch:type="MSShapeGroup" mask="url(#mask-2)"></path>
            <path d="M119.595,131.253 C119.474,131.253 119.352,131.252 119.231,131.252 C119.11,131.252 118.988,131.253 118.867,131.253 C112.32,131.253 105.35,130.798 105.35,130.798 C105.35,130.798 110.877,134.14 119.23,134.14 L119.231,134.14 L119.232,134.14 C127.286,134.14 133.112,130.798 133.112,130.798 C133.112,130.798 126.142,131.253 119.595,131.253 L119.595,131.253 Z" id="Shape" fill="#FAE6E5" sketch:type="MSShapeGroup" mask="url(#mask-2)"></path>
            <path d="M119.23,129.921 C108.454,129.873 102.29,130.766 102.29,130.766 C102.29,130.766 108.01,131.841 119.23,131.875 C130.451,131.841 136.17,130.766 136.17,130.766 C136.17,130.766 130.007,129.873 119.23,129.921 L119.23,129.921 Z" id="Shape" fill="#D78980" sketch:type="MSShapeGroup" mask="url(#mask-2)"></path>
            <path d="M119.23,129.921 C108.454,129.873 102.29,130.766 102.29,130.766 C102.29,130.766 108.01,131.841 119.23,131.875 C130.451,131.841 136.17,130.766 136.17,130.766 C136.17,130.766 130.007,129.873 119.23,129.921 L119.23,129.921 Z" id="Shape" fill="#D3918C" sketch:type="MSShapeGroup" mask="url(#mask-2)"></path>
            <path d="M106.447,121.097 C106.447,121.097 100.225,129.055 99.803,130.446 C99.346,131.953 99.907,134.825 99.907,134.825 C99.907,134.825 97.739,132.281 98.195,129.919 C98.651,127.557 106.447,121.097 106.447,121.097 L106.447,121.097 Z" id="Shape" fill="#D8B9A7" sketch:type="MSShapeGroup" mask="url(#mask-2)"></path>
            <path d="M132.015,121.097 C132.015,121.097 138.237,129.055 138.659,130.446 C139.116,131.953 138.555,134.825 138.555,134.825 C138.555,134.825 140.723,132.281 140.267,129.919 C139.811,127.557 132.015,121.097 132.015,121.097 L132.015,121.097 Z" id="Shape" fill="#D8B9A7" sketch:type="MSShapeGroup" mask="url(#mask-2)"></path>
            <path d="M130.431,114.033 C130.431,114.033 123.709,111.792 122.776,108.991 C121.843,106.19 122.776,96.668 122.776,96.668 C122.776,96.668 123.149,103.39 125.016,106.564 C126.883,109.738 130.431,114.033 130.431,114.033 L130.431,114.033 Z" id="Shape" opacity="0.5" fill="#D8B9A7" sketch:type="MSShapeGroup" mask="url(#mask-2)"></path>
            <path d="M108.536,114.033 C108.536,114.033 115.258,111.792 116.191,108.991 C117.124,106.19 116.191,96.668 116.191,96.668 C116.191,96.668 115.818,103.39 113.951,106.564 C112.084,109.738 108.536,114.033 108.536,114.033 L108.536,114.033 Z" id="Shape" opacity="0.5" fill="#D8B9A7" sketch:type="MSShapeGroup" mask="url(#mask-2)"></path>
            <g id="Group" mask="url(#mask-2)" fill="#937B6F" sketch:type="MSShapeGroup">
                <g transform="translate(111.000000, 116.000000)" id="Shape">
                    <path d="M6.362,3.097 C6.362,3.097 4.204,0.685 2.733,0.994 C1.262,1.303 -0.211,2.503 2.29,2.856 C4.791,3.209 6.362,3.097 6.362,3.097 L6.362,3.097 Z"></path>
                    <path d="M10.098,3.097 C10.098,3.097 12.256,0.685 13.727,0.994 C15.198,1.303 16.671,2.503 14.17,2.856 C11.669,3.209 10.098,3.097 10.098,3.097 L10.098,3.097 Z"></path>
                </g>
            </g>
            <path d="M123.048,137.505 C123.048,138.138 121.338,138.651 119.232,138.651 C117.124,138.651 115.414,138.138 115.414,137.505 C115.414,136.873 117.124,137.36 119.232,137.36 C121.338,137.36 123.048,136.873 123.048,137.505 L123.048,137.505 Z" id="Shape" opacity="0.1" fill="#FAE6E5" sketch:type="MSShapeGroup" mask="url(#mask-2)"></path>
            <g id="Group" mask="url(#mask-2)" sketch:type="MSShapeGroup">
                <g transform="translate(146.000000, 219.000000)" id="Shape">
                    <path d="M17.913,1.745 C17.913,1.745 18.986,1.967 18.989,3.117 C18.992,4.44 18.661,4.696 18.452,5.19 C18.216,5.751 18.003,7.44 17.636,8.043 C17.268,8.646 16.474,10.321 14.769,11.851 C13.064,13.38 12.328,13.924 11.005,14.527 C9.681,15.13 7.811,15.931 6.359,16.04 C2.326,16.346 0.919,15.042 0.919,15.042 L17.913,1.745 L17.913,1.745 Z" fill="#5E2E20"></path>
                    <path d="M16.915,0.882 C16.915,0.882 16.136,0.529 15.43,0.765 C14.724,0.999 14.535,1.348 14.018,1.485 C13.136,1.72 11.035,1.362 6.387,4.264 C1.739,7.165 0.52,12.394 0.506,13.277 C0.492,14.16 0.565,15.071 1.257,15.203 C5.113,15.603 10.988,12.578 13.666,10.087 C16.344,7.596 17.591,5.014 17.665,4.485 C17.739,3.956 17.665,3.573 17.783,3.441 C17.901,3.309 18.93,2.545 18.474,2.001 C18.078,1.529 17.548,1.854 17.548,1.854 C17.548,1.854 18.592,1.06 18.063,0.685 C17.533,0.309 16.915,0.882 16.915,0.882 L16.915,0.882 Z" fill="#DE922E"></path>
                    <path d="M15.15,3.234 C15.15,3.234 14.445,2.749 13.754,2.69 C13.064,2.632 9.932,2.763 7.402,4.866 C4.874,6.968 3.903,8.086 2.962,10.203 C2.021,12.32 2.816,12.692 2.962,12.937 C3.33,13.555 6.05,13.599 8.829,12.099 C12.135,10.314 13.064,9.011 13.754,8.261 C14.445,7.513 17.386,5.587 15.15,3.234 L15.15,3.234 Z" fill="#FEEACB"></path>
                    <path d="M13.96,2.984 C14.174,2.984 14.689,3.075 14.987,3.132 C14.738,2.986 14.242,2.732 13.753,2.69 C13.063,2.632 9.931,2.763 7.401,4.866 C4.873,6.968 3.902,8.086 2.961,10.203 C2.381,11.506 2.461,12.148 2.641,12.507 C2.63,12.209 2.629,11.844 2.667,11.614 C2.74,11.173 3.387,10.496 3.549,10.129 C3.711,9.762 3.755,9.101 4.078,8.556 C4.401,8.012 4.887,7.983 5.108,7.703 C5.328,7.424 5.181,7.144 5.755,6.63 C6.328,6.115 7.254,5.674 7.769,5.351 C8.283,5.028 8.681,4.528 9.386,4.204 C10.091,3.881 10.533,3.763 10.96,3.616 C11.386,3.469 12.004,3.013 12.71,2.823 C13.417,2.632 13.651,2.984 13.96,2.984 L13.96,2.984 Z" fill="#5E2E20"></path>
                    <path d="M14.921,3.389 C14.921,3.389 15.657,2.668 15.719,2.323 C15.781,1.978 15.943,1.344 16.23,1.18 C16.517,1.016 16.916,0.882 16.916,0.882 C16.916,0.882 16.517,1.532 16.374,1.745 C16.23,1.957 16.067,2.135 16.067,2.135 C16.067,2.135 16.313,1.978 16.64,1.937 C16.967,1.896 17.793,1.639 17.793,1.639 C17.793,1.639 16.852,2.075 16.357,2.323 C15.863,2.571 15.801,2.858 15.658,3.082 C15.514,3.308 15.023,3.549 15.023,3.549 L14.921,3.389 L14.921,3.389 Z" fill="#FEEACB"></path>
                    <path d="M11.387,15.967 C11.783,15.929 12.064,16.099 12.431,16.276 C12.799,16.453 13.147,16.702 12.929,16.982 C12.711,17.261 12.299,17.351 11.284,17.379 C10.27,17.408 9.697,17.291 9.814,16.762 C9.932,16.232 10.769,16.026 11.387,15.967 L11.387,15.967 Z" fill="#5E2E20"></path>
                    <path d="M10.933,16.819 C10.208,16.819 10.08,16.702 10.066,16.686 C10.065,16.68 10.063,16.661 10.072,16.621 C10.126,16.38 10.646,16.164 11.338,16.098 C11.365,16.096 11.39,16.094 11.416,16.094 C11.63,16.094 11.812,16.185 12.066,16.309 C12.109,16.33 12.153,16.352 12.2,16.374 C12.402,16.471 12.498,16.546 12.541,16.588 C12.412,16.71 12.107,16.79 11.194,16.816 C11.1,16.817 11.012,16.819 10.933,16.819 L10.933,16.819 Z" fill="#7D4939"></path>
                    <path d="M7.153,17.383 C7.297,17.185 8.006,16.07 8.549,16.673 C9.093,17.276 8.902,17.546 8.549,17.894 C8.196,18.241 6.946,19.129 6.653,18.643 C6.358,18.158 6.95,17.661 7.153,17.383 L7.153,17.383 Z" fill="#5E2E20"></path>
                    <path d="M6.855,18.221 C6.793,18.073 6.926,17.874 7.19,17.569 C7.25,17.5 7.305,17.435 7.351,17.373 C7.362,17.357 7.378,17.336 7.395,17.311 C7.468,17.208 7.603,17.014 7.76,16.855 C7.927,16.688 8.05,16.627 8.111,16.627 C8.122,16.627 8.153,16.627 8.208,16.69 C8.45,16.956 8.463,17.079 8.458,17.118 C8.448,17.198 8.339,17.315 8.223,17.429 C8.104,17.546 7.846,17.754 7.557,17.929 C7.118,18.2 6.911,18.22 6.859,18.22 C6.857,18.221 6.855,18.221 6.855,18.221 L6.855,18.221 Z" fill="#7D4939"></path>
                    <path d="M1.683,16.218 C2.067,16.206 3.609,16.143 3.652,16.673 C3.696,17.202 2.462,17.658 1.683,17.702 C0.903,17.746 0.154,17.423 0.154,17.159 C0.154,16.894 1.037,16.237 1.683,16.218 L1.683,16.218 Z" fill="#5E2E20"></path>
                    <path d="M1.456,17.142 C0.998,17.142 0.64,17.011 0.48,16.917 C0.675,16.717 1.2,16.362 1.611,16.35 L1.642,16.349 C1.734,16.347 1.873,16.342 2.033,16.342 C2.865,16.342 3.138,16.461 3.214,16.509 C3.18,16.567 3.048,16.708 2.698,16.863 C2.356,17.012 1.918,17.122 1.582,17.141 C1.541,17.141 1.498,17.142 1.456,17.142 L1.456,17.142 Z" fill="#7D4939"></path>
                    <path d="M13.563,3.926 C13.563,3.926 13.724,3.676 13.724,3.499 C13.724,3.323 13.812,3.146 13.563,3.176 C13.313,3.205 13.298,3.378 13.357,3.55 C13.417,3.72 13.563,3.926 13.563,3.926 L13.563,3.926 Z" fill="#5E2E20"></path>
                    <path d="M13.481,3.709 C13.481,3.709 13.643,3.459 13.643,3.283 C13.643,3.106 13.73,2.929 13.481,2.959 C13.231,2.989 13.216,3.162 13.275,3.333 C13.333,3.503 13.481,3.709 13.481,3.709 L13.481,3.709 Z" fill="#7D4939"></path>
                    <path d="M14.342,4.352 C14.49,4.167 15.18,4.176 15.327,4.456 C15.474,4.735 15.239,5.235 14.901,5.294 C14.563,5.353 14.176,5.227 14.064,5.044 C13.95,4.86 14.225,4.5 14.342,4.352 L14.342,4.352 Z" fill="#5E2E20"></path>
                    <path d="M14.645,4.743 C14.502,4.743 14.387,4.704 14.322,4.671 C14.346,4.617 14.397,4.525 14.51,4.38 C14.536,4.371 14.593,4.358 14.677,4.358 C14.808,4.358 14.905,4.39 14.94,4.411 C14.945,4.44 14.942,4.509 14.898,4.593 C14.856,4.676 14.794,4.727 14.759,4.734 C14.724,4.74 14.685,4.743 14.645,4.743 L14.645,4.743 Z" fill="#7D4939"></path>
                    <path d="M13.269,6.013 C13.248,6.249 13.915,6.572 13.812,6.807 C13.709,7.043 12.754,7.704 12.253,6.954 C11.753,6.204 12.225,5.572 12.459,5.454 C12.695,5.337 13.298,5.689 13.269,6.013 L13.269,6.013 Z" fill="#5E2E20"></path>
                    <path d="M12.792,6.738 C12.652,6.738 12.55,6.678 12.462,6.545 C12.316,6.328 12.268,6.112 12.317,5.905 C12.359,5.731 12.46,5.61 12.513,5.565 C12.617,5.582 12.805,5.706 12.838,5.783 C12.823,6.056 13.036,6.251 13.225,6.425 C13.255,6.452 13.295,6.488 13.33,6.523 C13.209,6.618 12.995,6.738 12.792,6.738 L12.792,6.738 Z" fill="#7D4939"></path>
                    <path d="M10.799,4.073 C10.673,4.198 10.564,4.683 10.739,4.767 C10.916,4.852 11.548,4.646 11.695,4.484 C11.843,4.321 12.122,3.837 11.871,3.852 C11.62,3.867 11.005,3.867 10.799,4.073 L10.799,4.073 Z" fill="#5E2E20"></path>
                    <path d="M10.933,4.2 C10.943,4.161 10.955,4.123 10.969,4.099 C10.99,4.086 11.06,4.052 11.236,4.026 C11.282,4.019 11.33,4.014 11.378,4.008 C11.372,4.016 11.366,4.023 11.36,4.03 C11.301,4.079 11.1,4.161 10.933,4.2 L10.933,4.2 Z" fill="#7D4939"></path>
                    <path d="M8.799,4.91 C9.018,4.846 9.334,5.175 9.397,5.498 C9.46,5.821 9.523,6.425 9.242,6.498 C8.96,6.571 8.578,6.116 8.563,5.895 C8.549,5.675 8.549,4.984 8.799,4.91 L8.799,4.91 Z" fill="#5E2E20"></path>
                    <path d="M9.018,5.892 C8.938,5.827 8.849,5.716 8.829,5.648 C8.817,5.452 8.83,5.252 8.855,5.117 C8.907,5.178 8.958,5.263 8.975,5.349 C9.026,5.612 9.027,5.789 9.018,5.892 L9.018,5.892 Z" fill="#7D4939"></path>
                    <path d="M6.932,6.778 C7.14,6.789 7.432,6.572 7.549,6.675 C7.668,6.778 7.961,7.498 7.417,7.66 C6.874,7.822 6.079,7.968 5.947,7.807 C5.816,7.645 5.962,7.115 6.168,6.983 C6.374,6.852 6.652,6.764 6.932,6.778 L6.932,6.778 Z" fill="#5E2E20"></path>
                    <path d="M6.171,7.312 C6.191,7.215 6.237,7.096 6.279,7.057 C6.425,6.963 6.616,6.908 6.789,6.908 C6.804,6.908 6.817,6.908 6.831,6.909 L6.865,6.909 C7.012,6.909 7.152,6.859 7.263,6.819 C7.265,6.818 7.267,6.818 7.269,6.817 C7.297,6.901 7.316,7.004 7.295,7.067 C7.29,7.08 7.284,7.095 7.234,7.11 C6.848,7.226 6.416,7.307 6.171,7.312 L6.171,7.312 Z" fill="#7D4939"></path>
                    <path d="M4.211,9.19 C4.064,9.351 3.652,9.881 3.946,10.028 C4.24,10.174 4.637,10.087 4.799,9.909 C4.96,9.733 5.446,9.483 5.387,9.19 C5.328,8.895 5.211,8.498 4.96,8.586 C4.712,8.674 4.211,9.19 4.211,9.19 L4.211,9.19 Z" fill="#5E2E20"></path>
                    <path d="M4.198,9.537 C4.182,9.537 4.167,9.537 4.151,9.535 C4.2,9.443 4.287,9.318 4.383,9.21 C4.557,9.033 4.758,8.856 4.889,8.761 C4.91,8.814 4.934,8.894 4.959,9.012 C4.919,9.079 4.769,9.197 4.694,9.256 C4.608,9.324 4.525,9.387 4.462,9.457 C4.436,9.486 4.333,9.537 4.198,9.537 L4.198,9.537 L4.198,9.537 Z" fill="#7D4939"></path>
                    <path d="M6.461,11.262 C6.568,11.437 6.815,11.571 7.108,11.483 C7.401,11.396 7.842,11.528 7.989,11.388 C8.136,11.248 8.415,10.615 8.291,10.277 C8.166,9.939 8.037,9.78 7.815,9.684 C7.593,9.587 7.11,9.487 6.815,9.684 C6.519,9.881 6.652,10.102 6.564,10.277 C6.476,10.453 6.27,10.954 6.461,11.262 L6.461,11.262 Z" fill="#5E2E20"></path>
                    <path d="M6.842,10.947 C6.756,10.947 6.699,10.902 6.675,10.864 C6.612,10.761 6.663,10.477 6.793,10.217 C6.855,10.094 6.863,9.977 6.869,9.89 C6.876,9.791 6.876,9.791 6.927,9.756 C6.98,9.721 7.068,9.702 7.174,9.702 C7.332,9.702 7.499,9.744 7.595,9.786 C7.691,9.828 7.773,9.884 7.884,10.182 C7.898,10.219 7.907,10.348 7.838,10.563 C7.791,10.709 7.729,10.83 7.691,10.889 C7.675,10.89 7.65,10.892 7.616,10.892 C7.576,10.892 7.533,10.891 7.486,10.889 C7.433,10.888 7.378,10.886 7.32,10.886 C7.158,10.886 7.038,10.901 6.927,10.933 C6.897,10.942 6.869,10.947 6.842,10.947 L6.842,10.947 L6.842,10.947 Z" fill="#7D4939"></path>
                    <path d="M5.241,11.924 C5.402,12.027 5.682,12.188 5.564,12.394 C5.447,12.6 4.657,12.689 4.617,12.541 C4.578,12.394 4.77,11.509 4.917,11.51 C5.064,11.513 5.241,11.924 5.241,11.924 L5.241,11.924 Z" fill="#5E2E20"></path>
                    <path d="M4.908,12.042 C4.913,12.017 4.918,11.99 4.924,11.964 C4.939,11.978 4.955,11.99 4.973,12.001 C4.973,12.001 5.008,12.022 5.012,12.026 C4.979,12.033 4.943,12.038 4.908,12.042 L4.908,12.042 Z" fill="#7D4939"></path>
                    <path d="M3.536,11.13 C3.756,11.136 4.05,11.453 3.756,11.939 C3.461,12.424 3.182,12.512 3.036,12.351 C2.889,12.188 3.094,11.115 3.536,11.13 L3.536,11.13 Z" fill="#5E2E20"></path>
                    <path d="M3.284,11.681 C3.291,11.647 3.3,11.612 3.31,11.576 C3.353,11.43 3.405,11.337 3.442,11.289 C3.443,11.291 3.444,11.294 3.445,11.296 C3.452,11.322 3.462,11.401 3.377,11.542 C3.344,11.597 3.312,11.643 3.284,11.681 L3.284,11.681 Z" fill="#7D4939"></path>
                    <path d="M10.236,7.302 C10.583,7.151 11.249,7.419 11.397,8.258 C11.545,9.096 11.198,10.187 10.461,10.102 C9.724,10.017 10.194,9.201 10.042,8.964 C9.888,8.729 9.848,7.471 10.236,7.302 L10.236,7.302 Z" fill="#5E2E20"></path>
                    <path d="M10.46,9.542 C10.446,9.542 10.433,9.541 10.418,9.54 C10.349,9.531 10.317,9.515 10.313,9.51 C10.281,9.464 10.307,9.256 10.318,9.167 C10.344,8.961 10.37,8.749 10.256,8.567 C10.231,8.506 10.187,8.264 10.198,7.953 C10.211,7.611 10.278,7.445 10.31,7.399 C10.322,7.396 10.338,7.393 10.359,7.393 C10.555,7.393 10.88,7.582 10.971,8.101 C11.054,8.572 10.948,9.13 10.723,9.397 C10.604,9.542 10.495,9.542 10.46,9.542 L10.46,9.542 Z" fill="#7D4939"></path>
                </g>
            </g>
            <g id="Group" mask="url(#mask-2)" sketch:type="MSShapeGroup">
                <g transform="translate(90.000000, 90.000000)">
                    <path d="M22.937,8.351 C22.937,8.351 19.941,0.356 15.04,0.353 C3.754,0.346 0.254,8.324 0.254,8.324 C0.254,8.324 3.164,7.834 11.291,7.636 C22.617,7.359 22.937,8.351 22.937,8.351 L22.937,8.351 Z" id="Shape" fill="#D8BCAD"></path>
                    <path d="M2.057,7.387 C3.944,6.936 6.322,6.401 11.29,6.28 C17.536,6.128 19.36,6.996 20.704,7.236 C19.405,4.59 17.643,1.909 14.541,1.907 C14.057,1.907 13.601,1.938 13.141,1.965 C6.677,2.452 4.152,4.634 2.057,7.387 L2.057,7.387 Z" id="Shape" fill="#937B6F"></path>
                    <path d="M13.444,3.048 C13.072,3.048 12.689,3.072 12.305,3.119 C7.768,3.675 3.679,6.433 2.547,7.254 C3.625,7.233 6.867,7.167 11.287,7.059 C13.234,7.012 14.971,6.987 16.449,6.987 C18.887,6.987 20.026,7.051 20.475,7.088 C19.963,6.24 17.747,3.048 13.444,3.048 L13.444,3.048 Z" id="Shape" fill="#FFFFFF"></path>
                    <path d="M12.29,2.995 C11.031,3.149 9.814,3.473 8.682,3.872 C8.486,4.322 8.374,4.816 8.374,5.338 C8.374,6.037 8.58,6.684 8.918,7.24 C9.663,7.222 10.452,7.204 11.29,7.183 C12.844,7.145 14.144,7.125 15.247,7.117 C15.542,6.588 15.725,5.987 15.725,5.338 C15.725,4.474 15.414,3.69 14.915,3.062 C14.125,2.922 13.258,2.877 12.29,2.995 L12.29,2.995 Z" id="Shape" fill="#1F8596"></path>
                    <path d="M12.995,2.948 C12.763,2.959 12.534,2.966 12.29,2.995 C11.661,3.072 11.043,3.194 10.44,3.343 C9.856,3.815 9.474,4.529 9.474,5.339 C9.474,6.078 9.789,6.739 10.287,7.209 C10.614,7.201 10.948,7.193 11.29,7.185 C12.247,7.162 13.112,7.145 13.893,7.134 C14.345,6.67 14.625,6.039 14.625,5.34 C14.625,4.251 13.948,3.325 12.995,2.948 L12.995,2.948 Z" id="Shape" fill="#509FA5"></path>
                    <circle id="Oval" fill="#000000" cx="12.048996" cy="5.33799744" r="1.82200003"></circle>
                    <circle id="Oval" opacity="0.8" fill="#FFFFFF" cx="10.4179993" cy="4.64599609" r="0.787"></circle>
                    <path d="M1.792,7.519 L2.083,7.289 C2.13,7.251 6.887,3.531 12.275,2.872 C12.67,2.824 13.063,2.799 13.444,2.799 C18.537,2.799 20.793,7.136 20.815,7.179 L20.923,7.391 L20.687,7.359 C20.678,7.358 19.747,7.236 16.449,7.236 C14.973,7.236 13.238,7.26 11.293,7.308 C5.855,7.441 2.199,7.511 2.163,7.511 L1.792,7.519 L1.792,7.519 Z M13.444,3.048 C13.072,3.048 12.689,3.072 12.305,3.119 C7.768,3.675 3.679,6.433 2.547,7.254 C3.625,7.233 6.867,7.167 11.287,7.059 C13.234,7.012 14.971,6.987 16.449,6.987 C18.887,6.987 20.026,7.051 20.475,7.088 C19.963,6.24 17.747,3.048 13.444,3.048 L13.444,3.048 Z" id="Shape" fill="#A48A7B"></path>
                    <path d="M8.803,3.964 C8.696,4.002 8.588,4.04 8.482,4.079 C8.34,4.475 8.249,4.894 8.249,5.338 C8.249,5.986 8.429,6.586 8.717,7.119 C8.807,7.117 8.9,7.115 8.992,7.113 C8.685,6.59 8.499,5.988 8.499,5.338 C8.499,4.847 8.62,4.389 8.803,3.964 L8.803,3.964 Z" id="Shape" fill="#326169"></path>
                    <path d="M15.192,3.242 C15.071,3.215 14.95,3.19 14.825,3.168 C15.299,3.771 15.599,4.515 15.599,5.338 C15.599,5.939 15.433,6.497 15.166,6.992 C15.26,6.992 15.353,6.991 15.445,6.99 C15.693,6.489 15.848,5.934 15.848,5.338 C15.85,4.559 15.598,3.845 15.192,3.242 L15.192,3.242 Z" id="Shape" fill="#326169"></path>
                </g>
            </g>
            <g id="Group" mask="url(#mask-2)" sketch:type="MSShapeGroup">
                <g transform="translate(127.000000, 90.000000)">
                    <path d="M0.253,8.351 C0.253,8.351 3.249,0.356 8.15,0.353 C19.436,0.346 22.936,8.324 22.936,8.324 C22.936,8.324 20.026,7.834 11.899,7.636 C0.572,7.359 0.253,8.351 0.253,8.351 L0.253,8.351 Z" id="Shape" fill="#D8BCAD"></path>
                    <path d="M21.133,7.387 C19.246,6.936 16.868,6.401 11.9,6.28 C5.654,6.128 3.83,6.996 2.486,7.236 C3.785,4.59 5.547,1.909 8.649,1.907 C9.133,1.907 9.589,1.938 10.049,1.965 C16.513,2.452 19.037,4.634 21.133,7.387 L21.133,7.387 Z" id="Shape" fill="#937B6F"></path>
                    <path d="M2.714,7.087 C3.163,7.051 4.303,6.986 6.74,6.986 C8.218,6.986 9.955,7.01 11.902,7.058 C16.322,7.166 19.564,7.232 20.642,7.253 C19.51,6.432 15.421,3.674 10.884,3.118 C10.5,3.071 10.116,3.047 9.745,3.047 C5.443,3.048 3.226,6.24 2.714,7.087 L2.714,7.087 Z" id="Shape" fill="#FFFFFF"></path>
                    <path d="M10.899,2.995 C12.158,3.149 13.375,3.473 14.507,3.872 C14.703,4.322 14.815,4.816 14.815,5.338 C14.815,6.037 14.609,6.684 14.271,7.24 C13.526,7.222 12.737,7.204 11.899,7.183 C10.345,7.145 9.045,7.125 7.942,7.117 C7.647,6.588 7.464,5.987 7.464,5.338 C7.464,4.474 7.775,3.69 8.274,3.062 C9.064,2.922 9.932,2.877 10.899,2.995 L10.899,2.995 Z" id="Shape" fill="#1F8596"></path>
                    <path d="M10.194,2.948 C10.426,2.959 10.655,2.966 10.899,2.995 C11.528,3.072 12.146,3.194 12.749,3.343 C13.333,3.815 13.715,4.529 13.715,5.339 C13.715,6.078 13.4,6.739 12.902,7.209 C12.575,7.201 12.241,7.193 11.899,7.185 C10.942,7.162 10.077,7.145 9.296,7.134 C8.844,6.67 8.564,6.039 8.564,5.34 C8.565,4.251 9.241,3.325 10.194,2.948 L10.194,2.948 Z" id="Shape" fill="#509FA5"></path>
                    <circle id="Oval" fill="#000000" cx="11.1399994" cy="5.33799744" r="1.82200003"></circle>
                    <circle id="Oval" opacity="0.8" fill="#FFFFFF" cx="9.55900574" cy="4.64599609" r="0.787"></circle>
                    <path d="M21.027,7.512 C20.991,7.512 17.335,7.442 11.897,7.309 C9.952,7.262 8.217,7.237 6.741,7.237 C3.444,7.237 2.512,7.358 2.503,7.36 L2.267,7.392 L2.375,7.18 C2.397,7.137 4.653,2.8 9.746,2.8 C10.128,2.8 10.521,2.824 10.915,2.873 C16.304,3.533 21.06,7.253 21.107,7.29 L21.398,7.52 L21.027,7.512 L21.027,7.512 Z M2.714,7.087 C3.163,7.051 4.303,6.986 6.74,6.986 C8.218,6.986 9.955,7.01 11.902,7.058 C16.322,7.166 19.564,7.232 20.642,7.253 C19.51,6.432 15.421,3.674 10.884,3.118 C10.5,3.071 10.116,3.047 9.745,3.047 C5.443,3.048 3.226,6.24 2.714,7.087 L2.714,7.087 Z" id="Shape" fill="#A48A7B"></path>
                    <path d="M14.387,3.964 C14.494,4.002 14.602,4.04 14.708,4.079 C14.85,4.475 14.941,4.894 14.941,5.338 C14.941,5.986 14.761,6.586 14.473,7.119 C14.383,7.117 14.29,7.115 14.198,7.113 C14.505,6.59 14.691,5.988 14.691,5.338 C14.69,4.847 14.57,4.389 14.387,3.964 L14.387,3.964 Z" id="Shape" fill="#326169"></path>
                    <path d="M7.997,3.242 C8.118,3.215 8.239,3.19 8.364,3.168 C7.89,3.771 7.59,4.515 7.59,5.338 C7.59,5.939 7.756,6.497 8.023,6.992 C7.929,6.992 7.836,6.991 7.744,6.99 C7.496,6.489 7.341,5.934 7.341,5.338 C7.34,4.559 7.591,3.845 7.997,3.242 L7.997,3.242 Z" id="Shape" fill="#326169"></path>
                </g>
            </g>
        </g>
    </g>
</svg>